<svg xmlns="http://www.w3.org/2000/svg" width="50" height="52" fill="none"><path fill="#12C296" d="M32.971 19.482 22.953 30.705l-5.084-5.084a.89.89 0 1 0-1.259 1.259l5.75 5.75c.167.167.393.26.63.26h.025a.89.89 0 0 0 .639-.297L34.3 20.668a.89.89 0 1 0-1.329-1.186Z"/><path fill="#12C296" d="M49.972 25.998a.88.88 0 0 0 .028-.21c0-2.373-2.461-3.6-4.634-4.682-1.541-.768-3.135-1.563-3.56-2.564-.432-1.022.179-2.687.767-4.299.822-2.245 1.67-4.566.104-6.131-1.536-1.536-3.782-1.016-5.955-.511-1.52.352-3.093.716-4.141.273-1.023-.432-1.873-1.774-2.695-3.072C28.694 2.92 27.344.788 25 .788c-2.348 0-3.673 2.18-4.84 4.102-.811 1.335-1.65 2.714-2.672 3.146-1.043.443-2.633.042-4.17-.344-2.19-.55-4.455-1.12-5.995.42-1.555 1.555-.801 3.889-.071 6.146.52 1.61 1.059 3.275.623 4.306-.425 1.006-1.948 1.793-3.421 2.555C2.366 22.2 0 23.422 0 25.79c0 .074.012.144.028.212a.88.88 0 0 0-.027.211c0 2.368 2.366 3.591 4.454 4.67 1.472.761 2.996 1.549 3.42 2.555.437 1.03-.102 2.696-.623 4.307-.73 2.256-1.484 4.589.071 6.144 1.541 1.542 3.805.972 5.995.421 1.538-.386 3.128-.785 4.172-.344 1.02.432 1.86 1.811 2.67 3.145 1.168 1.923 2.493 4.102 4.84 4.102 2.344 0 3.695-2.133 4.887-4.014.823-1.298 1.672-2.64 2.693-3.072 1.052-.444 2.623-.08 4.142.273 2.172.504 4.42 1.026 5.954-.51 1.568-1.566.719-3.888-.103-6.132-.589-1.612-1.199-3.277-.767-4.298.425-1.002 2.019-1.797 3.56-2.565C47.538 29.813 50 28.586 50 26.213a.87.87 0 0 0-.028-.215Zm-5.4 3.3c-1.83.913-3.723 1.856-4.405 3.465-.705 1.668.027 3.669.734 5.603.658 1.8 1.28 3.5.516 4.262-.836.838-2.516.448-4.292.036-1.797-.417-3.656-.848-5.238-.18-1.534.65-2.535 2.231-3.504 3.76-1.038 1.638-2.018 3.185-3.382 3.185-1.347 0-2.305-1.576-3.32-3.245-.957-1.576-1.948-3.206-3.498-3.86-1.594-.676-3.477-.202-5.3.257-1.787.448-3.474.874-4.3.047-.786-.785-.228-2.51.362-4.338.622-1.92 1.263-3.906.57-5.548-.675-1.598-2.489-2.536-4.243-3.443-1.795-.928-3.491-1.805-3.491-3.089a.903.903 0 0 0-.029-.213.88.88 0 0 0 .028-.21c0-1.284 1.696-2.16 3.491-3.088 1.754-.907 3.569-1.845 4.244-3.444.693-1.642.051-3.627-.57-5.547-.59-1.828-1.15-3.554-.363-4.34.825-.826 2.513-.4 4.3.048 1.822.458 3.705.933 5.3.258 1.55-.655 2.54-2.285 3.5-3.86 1.013-1.67 1.971-3.247 3.318-3.247 1.364 0 2.344 1.547 3.382 3.186.969 1.53 1.97 3.11 3.505 3.76 1.582.669 3.44.238 5.238-.18 1.776-.412 3.455-.802 4.293.037.762.762.14 2.461-.517 4.26-.708 1.936-1.44 3.937-.734 5.605.68 1.608 2.574 2.552 4.405 3.464 1.876.934 3.647 1.817 3.647 3.088 0 .073.012.144.029.212a.881.881 0 0 0-.028.21c0 1.273-1.772 2.155-3.647 3.09Z"/></svg>