<svg xmlns="http://www.w3.org/2000/svg" width="512" height="411" fill="none"><path fill="#D7DBDD" d="M497.768 134.782a61.465 61.465 0 0 0-.253-19.664l13.927-6.256-11.289-25.125-13.329 5.979a61.225 61.225 0 0 0-15.425-15.045l5.483-14.423-25.747-9.804-5.403 14.216a61.42 61.42 0 0 0-21.842.68l-6.347-14.124-25.137 11.29 6.475 14.423a61.17 61.17 0 0 0-13.26 14.112l-14.434-5.495-9.792 25.759 14.215 5.402a61.257 61.257 0 0 0 .023 18.179l-15.598 7.004 11.278 25.137 14.4-6.463a61.285 61.285 0 0 0 16.266 16.243l-5.483 14.435 25.747 9.792 5.415-14.216a61.434 61.434 0 0 0 23.281-1.002l6.221 13.858 25.125-11.289-6.624-14.757a61.132 61.132 0 0 0 12.096-13.179l14.435 5.483 9.792-25.747-14.216-5.403Zm-31.726 2.304c-6.209 16.324-24.48 24.526-40.804 18.317-16.335-6.209-24.537-24.48-18.328-40.815 6.209-16.324 24.492-24.526 40.815-18.317 16.324 6.209 24.526 24.48 18.317 40.815ZM178.618 109.726a79.331 79.331 0 0 0-.334-25.367l17.971-8.064-14.561-32.44-17.199 7.718c-5.369-7.476-12.062-14.089-19.919-19.4l7.085-18.627L118.438.908l-6.982 18.34a79.197 79.197 0 0 0-28.189.887L75.087 1.9 42.66 16.46l8.352 18.617a78.984 78.984 0 0 0-17.107 18.201l-18.628-7.084L2.639 79.429l18.34 6.97A79.303 79.303 0 0 0 21 109.864L.876 118.908l14.561 32.429 18.582-8.341a79.003 79.003 0 0 0 20.99 20.967l-7.085 18.627 33.235 12.638 6.981-18.34a79.344 79.344 0 0 0 30.033-1.302l8.029 17.879 32.44-14.561-8.547-19.043a79.084 79.084 0 0 0 15.598-17.015l18.627 7.085 12.638-33.224-18.34-6.981Zm-40.942 2.973c-8.006 21.07-31.588 31.656-52.658 23.639-21.07-8.007-31.657-31.588-23.65-52.658 8.017-21.07 31.599-31.657 52.669-23.64 21.07 8.007 31.657 31.588 23.639 52.659ZM154.679 320.485a61.401 61.401 0 0 0-.253-19.653l13.928-6.256-11.29-25.136-13.329 5.99a61.208 61.208 0 0 0-15.425-15.045l5.484-14.435-25.748-9.792-5.414 14.216a61.164 61.164 0 0 0-21.842.68l-6.336-14.124-25.136 11.29 6.474 14.423a61.35 61.35 0 0 0-13.26 14.1l-14.434-5.483-9.792 25.747 14.215 5.403a61.31 61.31 0 0 0 .012 18.19l-15.587 7.004 11.278 25.137 14.4-6.463a61.449 61.449 0 0 0 16.267 16.243l-5.484 14.435 25.747 9.792 5.403-14.216a61.396 61.396 0 0 0 23.282-1.002l6.221 13.858 25.137-11.289-6.624-14.757a61.157 61.157 0 0 0 12.096-13.179l14.434 5.483 9.792-25.747-14.216-5.414Zm-31.726 2.304c-6.209 16.335-24.48 24.537-40.803 18.328-16.336-6.209-24.538-24.491-18.329-40.815 6.21-16.324 24.48-24.526 40.816-18.317 16.323 6.209 24.526 24.48 18.316 40.804Z" opacity=".7"/><path fill="#2C3E50" d="m289.191 312.847 6.708 43.807 4.856 31.718h-98.332l10.319-66.984 1.315-8.541h75.134Zm.494-.576h-76.122l-11.812 76.677h99.675l-11.741-76.677Z"/><path fill="#2C3E50" d="M334.95 388.969v10.355H168.228v-10.355H334.95Zm.576-.576H167.652V399.9h167.874v-11.507Z"/><path fill="#212E3A" d="M426.356 138.031v157.87c0 11.774-9.551 21.324-21.324 21.324H97.966c-11.785 0-21.335-9.55-21.335-21.324v-157.87c0-11.785 9.55-21.335 21.335-21.335h307.066c11.773 0 21.324 9.55 21.324 21.335Z"/><path fill="#fff" d="M396.698 316.696H106.549c-11.78 0-21.33-9.55-21.33-21.331V147.191c0-11.781 9.55-21.331 21.33-21.331h290.149c11.781 0 21.331 9.55 21.331 21.331v148.174c.001 11.781-9.55 21.331-21.331 21.331Z"/><path stroke="#fff" stroke-miterlimit="10" d="m191.862 302.156 105.788.378M208.679 307.467l105.79.378"/><path fill="#2C3E50" d="M426.356 289.496v6.405c0 11.774-9.551 21.324-21.324 21.324H97.966c-11.785 0-21.335-9.55-21.335-21.324v-6.405h349.725Z"/><path stroke="#2C3E50" stroke-miterlimit="10" stroke-width=".5" d="M75.835 399.899h367.338M48.396 405.21h203.228M258.237 410.456h203.229"/><path fill="#F6B93B" d="M127.316 154.105c-1.073 0-2.025.211-2.857.632a5.672 5.672 0 0 0-2.079 1.791c-.555.783-.977 1.729-1.266 2.838-.289 1.109-.434 2.357-.434 3.743 0 1.869.229 3.466.687 4.792.47 1.314 1.194 2.321 2.17 3.02.976.687 2.236 1.03 3.779 1.03 1.073 0 2.146-.12 3.219-.361a30.778 30.778 0 0 0 3.526-1.031v4.701a16.97 16.97 0 0 1-3.454 1.031c-1.133.217-2.405.326-3.815.326-2.725 0-4.967-.561-6.727-1.682-1.748-1.133-3.043-2.712-3.887-4.738-.844-2.037-1.266-4.412-1.266-7.124 0-2.001.271-3.833.814-5.497.542-1.663 1.338-3.104 2.386-4.321 1.049-1.218 2.345-2.158 3.888-2.821 1.543-.663 3.315-.994 5.316-.994 1.314 0 2.628.168 3.942.506 1.326.325 2.592.777 3.797 1.356l-1.808 4.557a29.743 29.743 0 0 0-2.984-1.23c-1-.35-1.983-.524-2.947-.524Zm23.579 22.15-6.365-20.74h-.163l.109 2.242c.06.989.114 2.043.163 3.164.048 1.122.072 2.134.072 3.038v12.296h-5.009v-26.436h7.631l6.256 20.216h.109l6.636-20.216h7.63v26.436h-5.226v-12.513c0-.832.013-1.79.037-2.875.036-1.085.078-2.115.126-3.092l.109-2.224h-.163l-6.817 20.704h-5.135Zm39.346-7.341c0 1.567-.38 2.929-1.139 4.086-.76 1.157-1.869 2.049-3.327 2.676-1.447.627-3.207.941-5.28.941-.916 0-1.814-.061-2.694-.181a18.655 18.655 0 0 1-2.514-.525 15.62 15.62 0 0 1-2.278-.886v-5.207a43.177 43.177 0 0 0 3.906 1.501c1.35.446 2.688.669 4.014.669.916 0 1.651-.121 2.206-.362.566-.241.976-.573 1.229-.995.253-.421.38-.904.38-1.446 0-.663-.223-1.23-.669-1.7-.446-.47-1.061-.91-1.844-1.32-.772-.41-1.646-.85-2.622-1.32a29.817 29.817 0 0 1-2.007-1.049 11.707 11.707 0 0 1-2.062-1.536 7.413 7.413 0 0 1-1.609-2.188c-.41-.868-.615-1.905-.615-3.11 0-1.58.362-2.93 1.085-4.051.724-1.121 1.754-1.977 3.092-2.567 1.35-.603 2.942-.904 4.774-.904 1.374 0 2.682.162 3.924.488 1.253.313 2.561.771 3.923 1.374l-1.808 4.358c-1.217-.495-2.308-.874-3.273-1.139a10.581 10.581 0 0 0-2.947-.416c-.699 0-1.296.114-1.79.343-.494.217-.868.531-1.121.94-.253.398-.38.862-.38 1.393 0 .627.181 1.157.543 1.591.373.422.928.832 1.663 1.23.747.397 1.676.861 2.785 1.392 1.35.639 2.501 1.308 3.453 2.007.965.687 1.706 1.501 2.224 2.441.519.928.778 2.085.778 3.472Z"/><path fill="#fff" d="M187.182 200.469h-71.12v58.727h71.12v-58.727Z"/><path fill="#2C3E50" d="M186.894 200.756v58.152H116.35v-58.152h70.544Zm.576-.576h-71.696v59.304h71.696V200.18Z"/><path fill="#E74C3C" d="M124.937 220.377h-1.249l3.612-9.835h1.229l3.611 9.835h-1.248l-2.939-8.279h-.077l-2.939 8.279Zm.461-3.842h5.033v1.057h-5.033v-1.057Zm10.291 4.015c-.467 0-.891-.088-1.272-.264a2.183 2.183 0 0 1-.908-.773c-.224-.339-.336-.749-.336-1.229 0-.423.083-.766.25-1.028.166-.266.389-.474.667-.624.279-.151.586-.263.922-.337.34-.077.681-.137 1.023-.182.448-.058.812-.101 1.09-.13.282-.032.487-.085.615-.158.131-.074.197-.202.197-.385v-.038c0-.474-.13-.842-.389-1.105-.256-.262-.645-.393-1.167-.393-.541 0-.965.118-1.273.355-.307.237-.523.49-.648.759l-1.076-.384c.192-.449.449-.798.769-1.047a2.887 2.887 0 0 1 1.056-.529 4.405 4.405 0 0 1 1.134-.153c.237 0 .509.029.816.086.311.055.61.168.898.341.291.173.533.434.725.783.192.349.288.816.288 1.402v4.86h-1.133v-.998h-.058a1.95 1.95 0 0 1-.384.513 2.21 2.21 0 0 1-.715.466c-.298.128-.662.192-1.091.192Zm.173-1.018c.449 0 .826-.088 1.134-.264a1.799 1.799 0 0 0 .941-1.561v-1.037c-.048.058-.154.11-.317.158-.16.045-.346.085-.557.12a27.102 27.102 0 0 1-1.085.145c-.295.038-.57.1-.826.187-.253.083-.458.21-.615.379-.154.167-.231.394-.231.682 0 .394.146.692.437.893.295.199.668.298 1.119.298ZM176.849 222.309h-33.342v.885h33.342v-.885Z"/><path fill="#E0E0E2" d="M177.733 232.931H123.74v.884h53.993v-.884ZM160.031 240.897H123.74v.884h36.291v-.884ZM177.733 248.863H123.74v.885h53.993v-.885ZM386.416 196.232h-71.424v1.05h71.424v-1.05ZM386.416 202.528h-71.424v1.05h71.424v-1.05ZM386.416 208.824h-71.424v1.049h71.424v-1.049Z"/><path fill="#E74C3C" d="M344.285 226.156v32.774h-30.172v-41.142h21.117l9.055 8.368Z"/><path fill="#2C3E50" d="m344.316 226.183-.031.004-9.665 1.265.494-9.664.007-.104.109.104 9.055 8.368.031.027Z"/><path fill="#E74C3C" d="M386.909 226.156v32.774h-30.172v-41.142h21.117l9.055 8.368Z"/><path fill="#2C3E50" d="m386.94 226.183-.031.004-9.665 1.265.494-9.664.007-.104.109.104 9.055 8.368.031.027Z"/><path fill="#E0E0E2" d="M290.8 218.12h-71.424v1.05H290.8v-1.05ZM263.152 224.416h-43.776v1.049h43.776v-1.049ZM290.8 237.704h-71.424v1.05H290.8v-1.05ZM290.8 256.136h-71.424v1.05H290.8v-1.05ZM263.152 244h-43.776v1.049h43.776V244ZM263.152 249.76h-43.776v1.049h43.776v-1.049ZM290.8 230.712h-71.424v1.049H290.8v-1.049Z"/><path fill="#2C3E50" d="M292.982 151.605v49.079h-70.678v-49.079h70.678Zm.576-.576h-71.83v50.231h71.83v-50.231Z"/><path fill="#2C3E50" d="m248.843 163.586-25.257 37.673h50.512l-25.255-37.673Z"/><path fill="#FED330" d="M236.295 161.074a5.023 5.023 0 1 1-10.046 0 5.023 5.023 0 0 1 10.046 0Z"/><path fill="#2C3E50" d="M223.077 201.275h14.08l11.685-37.673-25.765 37.673Z"/><path fill="#1ABC9C" d="m261.414 163.586-25.764 37.673h51.529l-25.765-37.673Z"/><path fill="#16A085" d="M235.65 201.259h14.08l11.684-37.673-25.764 37.673Z"/><path fill="#fff" d="M181.219 19.795H85.311v67.07h95.908v-67.07Z"/><path fill="#2C3E50" d="M175.332 24.797v65.918H80.575V24.797h94.757Zm.576-.576h-95.91v67.07h95.909V24.22h.001Z"/><path fill="#FED330" d="M113.271 48.351 97.147 57.66l16.124 9.308v6.206L90.877 60.245v-5.173l22.394-12.927v6.206ZM142.112 49.068l16.123 9.308-16.123 9.308v6.206l22.393-12.928v-5.174l-22.393-12.926v6.206ZM119.412 33.792l-5.078 2.368 20.875 44.768 5.078-2.368-20.875-44.768Z"/><path fill="#2C3E50" d="M188.968 18.153H88.948v12.392h100.02V18.153Z"/><path fill="#EB2F06" d="M96.03 24.348a1.77 1.77 0 1 1-3.541 0 1.77 1.77 0 0 1 3.54 0Z"/><path fill="#F6B93B" d="M102.225 24.348a1.77 1.77 0 1 1-3.541 0 1.77 1.77 0 0 1 3.541 0Z"/><path fill="#2BCBBA" d="M108.422 24.348a1.77 1.77 0 1 1-3.541 0 1.77 1.77 0 0 1 3.541 0Z"/><path fill="#fff" d="M470.668 115.072h-89.009v81.83h89.009v-81.83Z"/><path fill="#2C3E50" d="M470.379 115.359v81.254h-88.432v-81.254h88.432Zm.576-.576h-89.584v82.406h89.584v-82.406Z"/><path fill="#2C3E50" d="M465.134 120.606v81.254h-88.432v-81.254h88.432Zm.576-.576h-89.584v82.406h89.584V120.03Z"/><path fill="#1ABC9C" d="M451.02 158.133c0 2.419-.345 4.747-1.002 6.947-1.221 4.216-3.56 7.96-6.659 10.921a24.574 24.574 0 0 1-16.611 6.774c-.127.011-.242.011-.381.011-.126 0-.242 0-.38-.011-6.428-.093-12.257-2.65-16.6-6.774-3.099-2.961-5.438-6.705-6.659-10.921a24.254 24.254 0 0 1-1.002-6.947c0-1.163.081-2.304.242-3.421a24.505 24.505 0 0 1 7.811-14.803 24.5 24.5 0 0 1 16.208-6.417c.138-.012.254-.012.38-.012.139 0 .254 0 .381.012a24.477 24.477 0 0 1 16.208 6.417c4.159 3.778 7.016 8.962 7.811 14.803.172 1.117.253 2.258.253 3.421Z"/><path stroke="#2C3E50" stroke-miterlimit="10" stroke-width=".5" d="M446.412 158.133a24.22 24.22 0 0 1-1.003 6.947c-1.221 4.216-3.559 7.96-6.658 10.921a24.577 24.577 0 0 1-16.612 6.774c-.127.011-.242.011-.38.011-.127 0-.242 0-.38-.011-6.428-.093-12.257-2.65-16.601-6.774-3.098-2.961-5.437-6.705-6.658-10.921a24.219 24.219 0 0 1-1.002-6.947c0-1.163.08-2.304.242-3.421a24.504 24.504 0 0 1 7.81-14.803 24.502 24.502 0 0 1 16.209-6.417c.138-.012.253-.012.38-.012.138 0 .253 0 .38.012a24.48 24.48 0 0 1 16.209 6.417c4.158 3.778 7.015 8.962 7.81 14.803.173 1.117.254 2.258.254 3.421Z"/><path stroke="#2C3E50" stroke-miterlimit="10" stroke-width=".5" d="M438.354 139.914a24.598 24.598 0 0 1-4.858 3.466 24.538 24.538 0 0 1-11.732 2.965 24.527 24.527 0 0 1-11.732-2.965 24.569 24.569 0 0 1-4.858-3.466 24.484 24.484 0 0 1 16.211-6.423c.129-.007.25-.007.379-.007s.25 0 .379.007a24.488 24.488 0 0 1 16.211 6.423ZM438.747 175.995a24.529 24.529 0 0 1-16.605 6.781c-.129.007-.25.007-.379.007s-.25 0-.379-.007a24.525 24.525 0 0 1-16.605-6.781 24.94 24.94 0 0 1 5.001-3.686 24.577 24.577 0 0 1 11.982-3.101c4.344 0 8.438 1.128 11.982 3.101a24.953 24.953 0 0 1 5.003 3.686Z"/><path stroke="#2C3E50" stroke-miterlimit="10" stroke-width=".5" d="M436.41 158.133c0 5.273-.986 10.168-2.664 14.176-2.587 6.173-6.81 10.259-11.603 10.467-.129.007-.25.007-.379.007s-.25 0-.379-.007c-4.795-.208-9.017-4.294-11.603-10.467-1.679-4.008-2.665-8.903-2.665-14.176 0-5.529 1.087-10.638 2.916-14.753 2.6-5.853 6.709-9.689 11.353-9.889.129-.007.25-.007.379-.007s.25 0 .379.007c4.644.2 8.753 4.036 11.353 9.889 1.827 4.115 2.913 9.224 2.913 14.753ZM421.764 133.484v49.299M397.113 158.133h49.3"/><path fill="#F6B93B" d="M138.737 280.107v47.634a7.662 7.662 0 0 1-7.66 7.66h-26.25l-8.614 14.94c-1.689 2.917-5.907 2.917-7.596 0l-8.615-14.94H54.065a7.662 7.662 0 0 1-7.66-7.66v-47.634a7.66 7.66 0 0 1 7.66-7.659h77.012a7.662 7.662 0 0 1 7.66 7.659Z"/><path fill="#E74C3C" d="M121.457 274.347v47.634a7.662 7.662 0 0 1-7.66 7.66h-26.25l-8.614 14.94c-1.689 2.917-5.908 2.917-7.596 0l-8.615-14.94H36.785a7.662 7.662 0 0 1-7.66-7.66v-47.634a7.66 7.66 0 0 1 7.66-7.659h77.012a7.662 7.662 0 0 1 7.66 7.659Z"/><path fill="#2C3E50" d="M104.88 271.986c3.905 0 7.083 3.177 7.083 7.083v47.634c0 3.906-3.177 7.084-7.083 7.084H78.295l-.166.288-8.614 14.94a3.774 3.774 0 0 1-3.299 1.901 3.775 3.775 0 0 1-3.3-1.9l-8.614-14.94-.166-.288H27.867c-3.905 0-7.084-3.177-7.084-7.083V279.07c0-3.905 3.178-7.083 7.084-7.083h77.013m0-.577H27.867a7.662 7.662 0 0 0-7.66 7.659v47.634c0 4.229 3.431 7.66 7.66 7.66h25.936l8.615 14.94a4.347 4.347 0 0 0 3.798 2.188 4.346 4.346 0 0 0 3.798-2.188l8.614-14.94h26.252a7.662 7.662 0 0 0 7.659-7.66v-47.634a7.662 7.662 0 0 0-7.659-7.659Z"/><path fill="#2C3E50" d="M48.012 296.694a4.623 4.623 0 0 1 4.618 4.618 4.623 4.623 0 0 1-4.618 4.618 4.623 4.623 0 0 1-4.618-4.618 4.623 4.623 0 0 1 4.618-4.618Zm0-1.152a5.77 5.77 0 1 0 0 11.54 5.77 5.77 0 0 0 0-11.54ZM73.193 296.694a4.623 4.623 0 0 1 4.618 4.618 4.623 4.623 0 0 1-4.618 4.618 4.624 4.624 0 0 1-4.619-4.618 4.624 4.624 0 0 1 4.619-4.618Zm0-1.152a5.77 5.77 0 1 0 0 11.54 5.77 5.77 0 0 0 0-11.54ZM98.374 296.694a4.624 4.624 0 0 1 4.619 4.618 4.624 4.624 0 0 1-4.619 4.618 4.624 4.624 0 0 1-4.618-4.618 4.623 4.623 0 0 1 4.618-4.618Zm0-1.152a5.77 5.77 0 1 0 0 11.54 5.77 5.77 0 0 0 0-11.54Z"/><path fill="#1ABC9C" d="M110.687 201.713c0 7.083-5.74 12.822-12.822 12.822-.074 0-.158 0-.23-.01v.01H31.648c-.556 0-1.101-.031-1.637-.105-6.316-.807-11.195-6.19-11.195-12.717 0-7.082 5.74-12.821 12.832-12.821 1.584 0 3.096.283 4.49.807a19.625 19.625 0 0 1-.535-4.543c0-10.818 8.771-19.589 19.589-19.589 8.54 0 15.8 5.466 18.476 13.083a12.806 12.806 0 0 1 7.408-2.35c7.082 0 12.822 5.74 12.822 12.822 0 .136 0 .263-.01.399a12.785 12.785 0 0 1 3.976-.63c7.082.002 12.822 5.741 12.822 12.822Z"/><path fill="#1ABC9C" d="M31.65 214.535h-1.638v-.105c.536.074 1.082.105 1.637.105Z"/><path fill="#2C3E50" d="M48.9 169.292c8.057 0 15.264 5.103 17.932 12.698l.253.719.623-.439a12.214 12.214 0 0 1 7.076-2.245c6.751 0 12.245 5.492 12.245 12.246 0 .12.001.232-.009.354l-.067.861.82-.269a12.19 12.19 0 0 1 3.797-.6c6.752 0 12.246 5.493 12.246 12.246 0 6.752-5.493 12.246-12.246 12.246h-.056a.69.69 0 0 1-.092-.005l-.658-.084v.089h-65.41c-.56 0-1.07-.032-1.563-.1-6.095-.78-10.691-6.001-10.691-12.146 0-6.752 5.498-12.246 12.256-12.246 1.483 0 2.927.259 4.287.771l1.014.381-.25-1.053a19.119 19.119 0 0 1-.52-4.41c-.002-10.485 8.528-19.014 19.012-19.014Zm0-.576c-10.818 0-19.59 8.771-19.59 19.588a19.7 19.7 0 0 0 .535 4.544 12.736 12.736 0 0 0-4.49-.808c-7.093 0-12.832 5.739-12.832 12.822 0 6.526 4.878 11.908 11.195 12.717.534.074 1.08.105 1.637.105h65.984v-.011c.074.011.158.011.23.011 7.083 0 12.822-5.74 12.822-12.822 0-7.083-5.74-12.822-12.822-12.822-1.385 0-2.728.22-3.977.629.01-.136.01-.263.01-.398 0-7.083-5.738-12.822-12.82-12.822-2.76 0-5.31.871-7.408 2.35-2.674-7.616-9.935-13.083-18.475-13.083Z"/><path fill="#2C3E50" d="M23.718 217.578v.104h1.637c-.557 0-1.103-.031-1.637-.104ZM52.697 186.847l7.668 8.833H54.923v14.666h-4.101V195.68H45.03l7.667-8.833Zm0-.878-8.93 10.287h6.479v14.666h5.253v-14.666h6.129l-8.93-10.287ZM74.623 186.545v14.666H80.065l-7.667 8.834-7.668-8.834h5.792v-14.666h4.101Zm.576-.576h-5.253v14.666h-6.479l8.93 10.287 8.93-10.287H75.2v-14.666Z"/><path fill="#fff" d="M460.275 19.832h-95.909v67.07h95.909v-67.07Z"/><path fill="#2C3E50" d="M454.388 24.834v65.918h-94.756V24.834h94.756Zm.576-.576h-95.908v67.07h95.908v-67.07Z"/><path fill="#E0E0E2" d="M417.437 39.64c6.036 2.544 10.275 8.517 10.275 15.478 0 9.271-7.516 16.787-16.787 16.787-9.272 0-16.787-7.516-16.787-16.787 0-9.271 7.515-16.787 16.787-16.787"/><path stroke="#2C3E50" stroke-miterlimit="10" stroke-width=".5" d="M417.437 39.64c6.036 2.544 10.275 8.517 10.275 15.478 0 9.271-7.516 16.787-16.787 16.787-9.272 0-16.787-7.516-16.787-16.787 0-9.271 7.515-16.787 16.787-16.787"/><path fill="#EB2F06" d="M422.465 53.419 404.94 63.537V43.3l17.525 10.118Z"/><path fill="#0C2461" d="M470.012 80.705h-100.02v2.655h100.02v-2.655Z"/><path fill="#EB2F06" d="M424.87 80.705h-54.878v2.655h54.878v-2.655Z"/><path fill="#2C3E50" d="M470.012 16.09h-100.02v12.393h100.02V16.09Z"/><path fill="#E74C3C" d="M377.073 22.286a1.77 1.77 0 1 1-3.542 0 1.77 1.77 0 0 1 3.542 0Z"/><path fill="#FED330" d="M383.268 22.286a1.77 1.77 0 1 1-3.54.001 1.77 1.77 0 0 1 3.54-.001Z"/><path fill="#1ABC9C" d="M389.465 22.286a1.77 1.77 0 1 1-3.542 0 1.77 1.77 0 0 1 3.542 0Z"/><path fill="#fff" d="M471.795 268.664h-95.909v67.07h95.909v-67.07Z"/><path fill="#2C3E50" d="M465.908 273.666v65.918h-94.756v-65.918h94.756Zm.576-.576h-95.908v67.07h95.908v-67.07Z"/><path fill="#E0E0E2" d="M428.957 288.473c6.036 2.544 10.275 8.515 10.275 15.477 0 9.271-7.516 16.787-16.787 16.787-9.272 0-16.787-7.516-16.787-16.787 0-9.271 7.515-16.787 16.787-16.787"/><path stroke="#2C3E50" stroke-miterlimit="10" stroke-width=".5" d="M428.957 288.473c6.036 2.544 10.275 8.515 10.275 15.477 0 9.271-7.516 16.787-16.787 16.787-9.272 0-16.787-7.516-16.787-16.787 0-9.271 7.515-16.787 16.787-16.787"/><path fill="#EB2F06" d="m433.985 302.251-17.525 10.118v-20.236l17.525 10.118Z"/><path fill="#0C2461" d="M481.532 329.537h-100.02v2.655h100.02v-2.655Z"/><path fill="#EB2F06" d="M436.39 329.537h-54.878v2.655h54.878v-2.655Z"/><path fill="#2C3E50" d="M481.532 264.923h-100.02v12.392h100.02v-12.392Z"/><path fill="#E74C3C" d="M388.593 271.118a1.771 1.771 0 1 1-3.542 0 1.771 1.771 0 0 1 3.542 0Z"/><path fill="#FED330" d="M394.788 271.118a1.77 1.77 0 1 1-3.54.001 1.77 1.77 0 0 1 3.54-.001Z"/><path fill="#1ABC9C" d="M400.985 271.118a1.77 1.77 0 1 1-3.541.001 1.77 1.77 0 0 1 3.541-.001Z"/><path fill="#fff" d="M309.894 50.242a38.719 38.719 0 0 1-11.244 27.36c-7.05 7.15-16.856 11.584-27.7 11.584-10.045 0-19.212-3.814-26.122-10.045-7.87-7.15-12.822-17.436-12.822-28.898 0-21.51 17.434-38.945 38.944-38.945 21.508 0 38.944 17.435 38.944 38.944Z"/><path fill="#2C3E50" d="M270.881 4.962c25.564 0 46.364 20.798 46.364 46.364 0 12.298-4.753 23.866-13.387 32.574-8.767 8.892-20.479 13.789-32.976 13.789a46.37 46.37 0 0 1-31.098-11.958c-9.701-8.814-15.265-21.354-15.265-34.404-.001-25.567 20.797-46.365 46.362-46.365Zm0-.576c-25.924 0-46.939 21.015-46.939 46.94 0 13.817 5.97 26.213 15.454 34.83 8.329 7.51 19.378 12.108 31.485 12.108 13.071 0 24.89-5.344 33.388-13.961 8.4-8.473 13.552-20.124 13.552-32.978-.001-25.925-21.015-46.939-46.94-46.939Z"/><path fill="#0A3D62" d="M272.417 53.359c8.273 0 14.979-6.706 14.979-14.978 0-8.273-6.706-14.979-14.979-14.979-8.272 0-14.978 6.706-14.978 14.979 0 8.272 6.706 14.978 14.978 14.978ZM298.649 77.603c-7.05 7.15-16.856 11.583-27.7 11.583-10.045 0-19.211-3.814-26.122-10.045 2.496-10.366 10.385-18.493 20.39-21.05a26.814 26.814 0 0 1 6.73-.858c1.837 0 3.655.18 5.393.54 10.126 2.054 18.294 9.764 21.309 19.83Z"/></svg>