<svg width="512" height="411" viewBox="0 0 512 411" fill="none" xmlns="http://www.w3.org/2000/svg">
<g opacity="0.7">
<path d="M497.768 134.782C498.759 128.147 498.632 121.523 497.515 115.118L511.442 108.862L500.153 83.7371L486.824 89.716C482.677 83.9215 477.482 78.7951 471.399 74.6709L476.882 60.2479L451.135 50.4443L445.732 64.66C438.348 63.5541 430.952 63.8421 423.89 65.3397L417.543 51.2162L392.406 62.5058L398.881 76.9288C393.812 80.8456 389.319 85.5803 385.621 91.0408L371.187 85.5458L361.395 111.305L375.61 116.707C374.7 122.824 374.735 128.942 375.633 134.886L360.035 141.89L371.313 167.027L385.713 160.564C389.999 166.854 395.482 172.407 401.979 176.807L396.496 191.242L422.243 201.034L427.658 186.818C435.537 187.993 443.428 187.601 450.939 185.816L457.16 199.674L482.285 188.385L475.661 173.628C480.258 169.895 484.347 165.483 487.757 160.449L502.192 165.932L511.984 140.185L497.768 134.782ZM466.042 137.086C459.833 153.41 441.562 161.612 425.238 155.403C408.903 149.194 400.701 130.923 406.91 114.588C413.119 98.2639 431.402 90.0616 447.725 96.2709C464.049 102.48 472.251 120.751 466.042 137.086Z" fill="#D7DBDD"/>
</g>
<g opacity="0.7">
<path d="M178.618 109.726C179.885 101.179 179.735 92.6192 178.284 84.3593L196.255 76.2953L181.694 43.855L164.495 51.5734C159.126 44.0969 152.433 37.4844 144.576 32.1737L151.661 13.5459L118.438 0.908447L111.456 19.2483C101.929 17.8313 92.4024 18.1884 83.267 20.1353L75.0878 1.89917L42.659 16.4604L51.011 35.0768C44.4677 40.134 38.6731 46.2396 33.9038 53.2784L15.276 46.1936L2.63854 79.4288L20.9784 86.3984C19.8033 94.3011 19.8494 102.204 21.0014 109.865L0.875977 118.908L15.4373 151.337L34.019 142.996C39.5486 151.118 46.6219 158.283 55.0085 163.963L47.9237 182.59L81.1588 195.228L88.14 176.888C98.3121 178.397 108.496 177.89 118.173 175.586L126.202 193.465L158.642 178.904L150.095 159.861C156.016 155.046 161.292 149.344 165.693 142.846L184.32 149.931L196.958 116.707L178.618 109.726ZM137.676 112.699C129.67 133.769 106.088 144.355 85.0181 136.338C63.948 128.331 53.3611 104.75 61.3675 83.6796C69.3854 62.6096 92.9668 52.0227 114.037 60.0406C135.107 68.047 145.694 91.6284 137.676 112.699Z" fill="#D7DBDD"/>
</g>
<g opacity="0.7">
<path d="M154.679 320.485C155.67 313.861 155.543 307.237 154.426 300.832L168.354 294.576L157.064 269.44L143.735 275.43C139.577 269.624 134.393 264.509 128.31 260.385L133.794 245.95L108.046 236.158L102.632 250.374C95.2477 249.268 87.8634 249.545 80.7901 251.054L74.4541 236.93L49.3175 248.22L55.7917 262.643C50.7229 266.56 46.2301 271.294 42.5322 276.743L28.0976 271.26L18.3056 297.007L32.5213 302.41C31.6112 308.539 31.6343 314.656 32.5329 320.6L16.9463 327.604L28.2244 352.741L42.6244 346.278C46.9098 352.568 52.3933 358.109 58.8906 362.521L53.4071 376.956L79.1543 386.748L84.5572 372.532C92.4484 373.707 100.34 373.316 107.839 371.53L114.06 385.388L139.197 374.099L132.573 359.342C137.169 355.609 141.259 351.197 144.669 346.163L159.103 351.646L168.895 325.899L154.679 320.485ZM122.953 322.789C116.744 339.124 98.4733 347.326 82.1495 341.117C65.8141 334.908 57.6119 316.626 63.8212 300.302C70.0304 283.978 88.3012 275.776 104.637 281.985C120.96 288.194 129.163 306.465 122.953 322.789Z" fill="#D7DBDD"/>
</g>
<path d="M289.191 312.847L295.899 356.654L300.755 388.372H202.423L212.742 321.388L214.057 312.847H289.191ZM289.685 312.271H213.563C209.625 337.829 205.689 363.389 201.751 388.948C234.976 388.948 268.201 388.948 301.426 388.948C297.513 363.389 293.599 337.829 289.685 312.271Z" fill="#2C3E50"/>
<path d="M334.95 388.969V399.324H168.228V388.969H334.95ZM335.526 388.393H167.652V399.9H335.526V388.393Z" fill="#2C3E50"/>
<path d="M426.356 138.031V295.901C426.356 307.675 416.805 317.225 405.032 317.225H97.9664C86.1814 317.225 76.6313 307.675 76.6313 295.901V138.031C76.6313 126.246 86.1814 116.696 97.9664 116.696H405.032C416.805 116.696 426.356 126.246 426.356 138.031Z" fill="#212E3A"/>
<path d="M396.698 316.696H106.549C94.7683 316.696 85.2183 307.146 85.2183 295.365V147.191C85.2183 135.41 94.7683 125.86 106.549 125.86H396.698C408.479 125.86 418.029 135.41 418.029 147.191V295.365C418.03 307.146 408.479 316.696 396.698 316.696Z" fill="white"/>
<path d="M191.862 302.156L297.65 302.534" stroke="white" stroke-miterlimit="10"/>
<path d="M208.679 307.467L314.469 307.845" stroke="white" stroke-miterlimit="10"/>
<path d="M426.356 289.496V295.901C426.356 307.675 416.805 317.225 405.032 317.225H97.9664C86.1814 317.225 76.6313 307.675 76.6313 295.901V289.496H426.356Z" fill="#2C3E50"/>
<path d="M75.8345 399.899H443.173" stroke="#2C3E50" stroke-width="0.5" stroke-miterlimit="10"/>
<path d="M48.396 405.21H251.624" stroke="#2C3E50" stroke-width="0.5" stroke-miterlimit="10"/>
<path d="M258.237 410.456H461.466" stroke="#2C3E50" stroke-width="0.5" stroke-miterlimit="10"/>
<path d="M127.316 154.105C126.243 154.105 125.291 154.316 124.459 154.737C123.639 155.147 122.946 155.744 122.38 156.528C121.825 157.311 121.403 158.257 121.114 159.366C120.825 160.475 120.68 161.723 120.68 163.109C120.68 164.978 120.909 166.575 121.367 167.901C121.837 169.215 122.561 170.222 123.537 170.921C124.513 171.608 125.773 171.951 127.316 171.951C128.389 171.951 129.462 171.831 130.535 171.59C131.62 171.349 132.795 171.005 134.061 170.559V175.26C132.891 175.743 131.74 176.086 130.607 176.291C129.474 176.508 128.202 176.617 126.792 176.617C124.067 176.617 121.825 176.056 120.065 174.935C118.317 173.802 117.022 172.223 116.178 170.197C115.334 168.16 114.912 165.785 114.912 163.073C114.912 161.072 115.183 159.24 115.726 157.576C116.268 155.913 117.064 154.472 118.112 153.255C119.161 152.037 120.457 151.097 122 150.434C123.543 149.771 125.315 149.44 127.316 149.44C128.63 149.44 129.944 149.608 131.258 149.946C132.584 150.271 133.85 150.723 135.055 151.302L133.247 155.859C132.259 155.388 131.264 154.979 130.263 154.629C129.263 154.279 128.28 154.105 127.316 154.105ZM150.895 176.255L144.53 155.515H144.367C144.391 156.009 144.428 156.757 144.476 157.757C144.536 158.746 144.59 159.8 144.639 160.921C144.687 162.043 144.711 163.055 144.711 163.959V176.255H139.702V149.819H147.333L153.589 170.035H153.698L160.334 149.819H167.964V176.255H162.738V163.742C162.738 162.91 162.751 161.952 162.775 160.867C162.811 159.782 162.853 158.752 162.901 157.775C162.949 156.787 162.986 156.045 163.01 155.551H162.847L156.03 176.255H150.895ZM190.241 168.914C190.241 170.481 189.861 171.843 189.102 173C188.342 174.157 187.233 175.049 185.775 175.676C184.328 176.303 182.568 176.617 180.495 176.617C179.579 176.617 178.681 176.556 177.801 176.436C176.933 176.315 176.095 176.14 175.287 175.911C174.492 175.67 173.732 175.375 173.009 175.025V169.818C174.263 170.372 175.565 170.873 176.915 171.319C178.265 171.765 179.603 171.988 180.929 171.988C181.845 171.988 182.58 171.867 183.135 171.626C183.701 171.385 184.111 171.053 184.364 170.631C184.617 170.21 184.744 169.727 184.744 169.185C184.744 168.522 184.521 167.955 184.075 167.485C183.629 167.015 183.014 166.575 182.231 166.165C181.459 165.755 180.585 165.315 179.609 164.845C178.994 164.556 178.325 164.206 177.602 163.796C176.878 163.375 176.191 162.862 175.54 162.26C174.889 161.657 174.353 160.928 173.931 160.072C173.521 159.204 173.316 158.167 173.316 156.962C173.316 155.382 173.678 154.032 174.401 152.911C175.125 151.79 176.155 150.934 177.493 150.344C178.843 149.741 180.435 149.44 182.267 149.44C183.641 149.44 184.949 149.602 186.191 149.928C187.444 150.241 188.752 150.699 190.114 151.302L188.306 155.66C187.089 155.165 185.998 154.786 185.033 154.521C184.069 154.243 183.087 154.105 182.086 154.105C181.387 154.105 180.79 154.219 180.296 154.448C179.802 154.665 179.428 154.979 179.175 155.388C178.922 155.786 178.795 156.25 178.795 156.781C178.795 157.408 178.976 157.938 179.338 158.372C179.711 158.794 180.266 159.204 181.001 159.602C181.748 159.999 182.677 160.463 183.786 160.994C185.136 161.633 186.287 162.302 187.239 163.001C188.204 163.688 188.945 164.502 189.463 165.442C189.982 166.37 190.241 167.527 190.241 168.914Z" fill="#F6B93B"/>
<path d="M187.182 200.469H116.062V259.196H187.182V200.469Z" fill="white"/>
<path d="M186.894 200.756V258.908H116.35V200.756H186.894ZM187.47 200.18H115.774V259.484H187.47V200.18Z" fill="#2C3E50"/>
<path d="M124.937 220.377H123.688L127.3 210.542H128.529L132.14 220.377H130.892L127.953 212.098H127.876L124.937 220.377ZM125.398 216.535H130.431V217.592H125.398V216.535ZM135.689 220.55C135.222 220.55 134.798 220.462 134.417 220.286C134.036 220.107 133.733 219.849 133.509 219.513C133.285 219.174 133.173 218.764 133.173 218.284C133.173 217.861 133.256 217.518 133.423 217.256C133.589 216.99 133.812 216.782 134.09 216.632C134.369 216.481 134.676 216.369 135.012 216.295C135.352 216.218 135.693 216.158 136.035 216.113C136.483 216.055 136.847 216.012 137.125 215.983C137.407 215.951 137.612 215.898 137.74 215.825C137.871 215.751 137.937 215.623 137.937 215.44V215.402C137.937 214.928 137.807 214.56 137.548 214.297C137.292 214.035 136.903 213.904 136.381 213.904C135.84 213.904 135.416 214.022 135.108 214.259C134.801 214.496 134.585 214.749 134.46 215.018L133.384 214.634C133.576 214.185 133.833 213.836 134.153 213.587C134.476 213.334 134.828 213.158 135.209 213.058C135.593 212.956 135.971 212.905 136.343 212.905C136.58 212.905 136.852 212.934 137.159 212.991C137.47 213.046 137.769 213.159 138.057 213.332C138.348 213.505 138.59 213.766 138.782 214.115C138.974 214.464 139.07 214.931 139.07 215.517V220.377H137.937V219.379H137.879C137.803 219.539 137.675 219.71 137.495 219.892C137.316 220.075 137.077 220.23 136.78 220.358C136.482 220.486 136.118 220.55 135.689 220.55ZM135.862 219.532C136.311 219.532 136.688 219.444 136.996 219.268C137.306 219.092 137.54 218.865 137.697 218.586C137.857 218.308 137.937 218.015 137.937 217.707V216.67C137.889 216.728 137.783 216.78 137.62 216.828C137.46 216.873 137.274 216.913 137.063 216.948C136.855 216.98 136.652 217.009 136.453 217.035C136.258 217.057 136.099 217.077 135.978 217.093C135.683 217.131 135.408 217.193 135.152 217.28C134.899 217.363 134.694 217.49 134.537 217.659C134.383 217.826 134.306 218.053 134.306 218.341C134.306 218.735 134.452 219.033 134.743 219.234C135.038 219.433 135.411 219.532 135.862 219.532Z" fill="#E74C3C"/>
<path d="M176.849 222.309H143.507V223.194H176.849V222.309Z" fill="#E74C3C"/>
<path d="M177.733 232.931H123.74V233.815H177.733V232.931Z" fill="#E0E0E2"/>
<path d="M160.031 240.897H123.74V241.781H160.031V240.897Z" fill="#E0E0E2"/>
<path d="M177.733 248.863H123.74V249.748H177.733V248.863Z" fill="#E0E0E2"/>
<path d="M386.416 196.232H314.992V197.282H386.416V196.232Z" fill="#E0E0E2"/>
<path d="M386.416 202.528H314.992V203.578H386.416V202.528Z" fill="#E0E0E2"/>
<path d="M386.416 208.824H314.992V209.873H386.416V208.824Z" fill="#E0E0E2"/>
<path d="M344.285 226.156V258.93H314.113V217.788H335.23L344.285 226.156Z" fill="#E74C3C"/>
<path d="M344.316 226.183L344.285 226.187L334.62 227.452L335.114 217.788L335.121 217.684L335.23 217.788L344.285 226.156L344.316 226.183Z" fill="#2C3E50"/>
<path d="M386.909 226.156V258.93H356.737V217.788H377.854L386.909 226.156Z" fill="#E74C3C"/>
<path d="M386.94 226.183L386.909 226.187L377.244 227.452L377.738 217.788L377.745 217.684L377.854 217.788L386.909 226.156L386.94 226.183Z" fill="#2C3E50"/>
<path d="M290.8 218.12H219.376V219.17H290.8V218.12Z" fill="#E0E0E2"/>
<path d="M263.152 224.416H219.376V225.465H263.152V224.416Z" fill="#E0E0E2"/>
<path d="M290.8 237.704H219.376V238.754H290.8V237.704Z" fill="#E0E0E2"/>
<path d="M290.8 256.136H219.376V257.186H290.8V256.136Z" fill="#E0E0E2"/>
<path d="M263.152 244H219.376V245.049H263.152V244Z" fill="#E0E0E2"/>
<path d="M263.152 249.76H219.376V250.809H263.152V249.76Z" fill="#E0E0E2"/>
<path d="M290.8 230.712H219.376V231.761H290.8V230.712Z" fill="#E0E0E2"/>
<path d="M292.982 151.605V200.684H222.304V151.605H292.982ZM293.558 151.029H221.728V201.26H293.558V151.029Z" fill="#2C3E50"/>
<path d="M248.843 163.586L223.586 201.259H274.098L248.843 163.586Z" fill="#2C3E50"/>
<path d="M236.295 161.074C236.295 163.848 234.046 166.097 231.272 166.097C228.498 166.097 226.25 163.848 226.25 161.074C226.25 158.3 228.498 156.052 231.272 156.052C234.046 156.052 236.295 158.3 236.295 161.074Z" fill="#FED330"/>
<path d="M223.077 201.275H237.157L248.842 163.602L223.077 201.275Z" fill="#2C3E50"/>
<path d="M261.414 163.586L235.65 201.259H287.179L261.414 163.586Z" fill="#1ABC9C"/>
<path d="M235.65 201.259H249.73L261.414 163.586L235.65 201.259Z" fill="#16A085"/>
<path d="M181.219 19.7954H85.3105V86.8648H181.219V19.7954Z" fill="white"/>
<path d="M175.332 24.7974V90.7149H80.5745V24.7974H175.332ZM175.908 24.2214H79.9985V91.2909H175.907V24.2214H175.908Z" fill="#2C3E50"/>
<path d="M113.271 48.3511L97.1473 57.6592L113.271 66.9674V73.1732L90.877 60.2455V55.0719L113.271 42.1453V48.3511Z" fill="#FED330"/>
<path d="M142.112 49.0676L158.235 58.3758L142.112 67.684V73.8898L164.505 60.962V55.7884L142.112 42.8618V49.0676Z" fill="#FED330"/>
<path d="M119.412 33.7922L114.334 36.1597L135.209 80.9278L140.287 78.5603L119.412 33.7922Z" fill="#FED330"/>
<path d="M188.968 18.1526H88.9482V30.5447H188.968V18.1526Z" fill="#2C3E50"/>
<path d="M96.0295 24.348C96.0295 25.3261 95.2369 26.1186 94.2589 26.1186C93.2809 26.1186 92.4883 25.3261 92.4883 24.348C92.4883 23.37 93.2809 22.5774 94.2589 22.5774C95.2369 22.5774 96.0295 23.37 96.0295 24.348Z" fill="#EB2F06"/>
<path d="M102.225 24.348C102.225 25.3261 101.432 26.1186 100.454 26.1186C99.4762 26.1186 98.6836 25.3261 98.6836 24.348C98.6836 23.37 99.4762 22.5774 100.454 22.5774C101.432 22.5774 102.225 23.37 102.225 24.348Z" fill="#F6B93B"/>
<path d="M108.422 24.348C108.422 25.3261 107.629 26.1186 106.651 26.1186C105.673 26.1186 104.88 25.3261 104.88 24.348C104.88 23.37 105.673 22.5774 106.651 22.5774C107.629 22.5774 108.422 23.37 108.422 24.348Z" fill="#2BCBBA"/>
<path d="M470.668 115.072H381.659V196.902H470.668V115.072Z" fill="white"/>
<path d="M470.379 115.359V196.613H381.947V115.359H470.379ZM470.955 114.783H381.371V197.189H470.955V114.783Z" fill="#2C3E50"/>
<path d="M465.134 120.606V201.86H376.702V120.606H465.134ZM465.71 120.03H376.126V202.436H465.71V120.03Z" fill="#2C3E50"/>
<path d="M451.02 158.133C451.02 160.552 450.675 162.88 450.018 165.08C448.797 169.296 446.458 173.04 443.359 176.001C439.016 180.125 433.176 182.682 426.748 182.775C426.621 182.786 426.506 182.786 426.367 182.786C426.241 182.786 426.125 182.786 425.987 182.775C419.559 182.682 413.73 180.125 409.387 176.001C406.288 173.04 403.949 169.296 402.728 165.08C402.072 162.88 401.726 160.552 401.726 158.133C401.726 156.97 401.807 155.829 401.968 154.712C402.774 148.871 405.62 143.687 409.779 139.909C414.064 135.992 419.755 133.584 425.987 133.492C426.125 133.48 426.241 133.48 426.367 133.48C426.506 133.48 426.621 133.48 426.748 133.492C432.991 133.584 438.671 135.992 442.956 139.909C447.115 143.687 449.972 148.871 450.767 154.712C450.939 155.829 451.02 156.97 451.02 158.133Z" fill="#1ABC9C"/>
<path d="M446.412 158.133C446.412 160.552 446.066 162.88 445.409 165.08C444.188 169.296 441.85 173.04 438.751 176.001C434.408 180.125 428.567 182.682 422.139 182.775C422.012 182.786 421.897 182.786 421.759 182.786C421.632 182.786 421.517 182.786 421.379 182.775C414.951 182.682 409.122 180.125 404.778 176.001C401.68 173.04 399.341 169.296 398.12 165.08C397.463 162.88 397.118 160.552 397.118 158.133C397.118 156.97 397.198 155.829 397.36 154.712C398.166 148.871 401.011 143.687 405.17 139.909C409.456 135.992 415.146 133.584 421.379 133.492C421.517 133.48 421.632 133.48 421.759 133.48C421.897 133.48 422.012 133.48 422.139 133.492C428.383 133.584 434.062 135.992 438.348 139.909C442.506 143.687 445.363 148.871 446.158 154.712C446.331 155.829 446.412 156.97 446.412 158.133Z" stroke="#2C3E50" stroke-width="0.5" stroke-miterlimit="10"/>
<path d="M438.354 139.914C436.89 141.258 435.253 142.422 433.496 143.38C430.009 145.272 426.008 146.345 421.764 146.345C417.52 146.345 413.519 145.273 410.032 143.38C408.274 142.422 406.638 141.258 405.174 139.914C409.46 135.992 415.148 133.584 421.385 133.491C421.514 133.484 421.635 133.484 421.764 133.484C421.893 133.484 422.014 133.484 422.143 133.491C428.38 133.584 434.066 135.992 438.354 139.914Z" stroke="#2C3E50" stroke-width="0.5" stroke-miterlimit="10"/>
<path d="M438.747 175.995C434.409 180.125 428.572 182.682 422.142 182.776C422.013 182.783 421.892 182.783 421.763 182.783C421.634 182.783 421.513 182.783 421.384 182.776C414.953 182.682 409.116 180.125 404.779 175.995C406.279 174.567 407.958 173.331 409.78 172.309C413.323 170.336 417.417 169.208 421.762 169.208C426.106 169.208 430.2 170.336 433.744 172.309C435.567 173.331 437.246 174.567 438.747 175.995Z" stroke="#2C3E50" stroke-width="0.5" stroke-miterlimit="10"/>
<path d="M436.41 158.133C436.41 163.406 435.424 168.301 433.746 172.309C431.159 178.482 426.936 182.568 422.143 182.776C422.014 182.783 421.893 182.783 421.764 182.783C421.635 182.783 421.514 182.783 421.385 182.776C416.59 182.568 412.368 178.482 409.782 172.309C408.103 168.301 407.117 163.406 407.117 158.133C407.117 152.604 408.204 147.495 410.033 143.38C412.633 137.527 416.742 133.691 421.386 133.491C421.515 133.484 421.636 133.484 421.765 133.484C421.894 133.484 422.015 133.484 422.144 133.491C426.788 133.691 430.897 137.527 433.497 143.38C435.324 147.495 436.41 152.604 436.41 158.133Z" stroke="#2C3E50" stroke-width="0.5" stroke-miterlimit="10"/>
<path d="M421.764 133.484V182.783" stroke="#2C3E50" stroke-width="0.5" stroke-miterlimit="10"/>
<path d="M397.113 158.133H446.413" stroke="#2C3E50" stroke-width="0.5" stroke-miterlimit="10"/>
<path d="M138.737 280.107V327.741C138.737 331.97 135.306 335.401 131.077 335.401H104.827L96.2131 350.341C94.5243 353.258 90.3057 353.258 88.6169 350.341L80.0022 335.401H54.0649C49.8371 335.401 46.4053 331.97 46.4053 327.741V280.107C46.4053 275.878 49.8359 272.448 54.0649 272.448H131.077C135.306 272.449 138.737 275.879 138.737 280.107Z" fill="#F6B93B"/>
<path d="M121.457 274.347V321.981C121.457 326.21 118.026 329.641 113.797 329.641H87.5464L78.9329 344.581C77.244 347.498 73.0254 347.498 71.3366 344.581L62.7219 329.641H36.7846C32.5568 329.641 29.125 326.21 29.125 321.981V274.347C29.125 270.118 32.5557 266.688 36.7846 266.688H113.797C118.026 266.689 121.457 270.119 121.457 274.347Z" fill="#E74C3C"/>
<path d="M104.88 271.986C108.785 271.986 111.963 275.163 111.963 279.069V326.703C111.963 330.609 108.786 333.787 104.88 333.787H78.6277H78.2948L78.1289 334.075L69.5154 349.015C68.8265 350.205 67.5927 350.916 66.2161 350.916C64.8395 350.916 63.6057 350.205 62.9168 349.016L54.3021 334.076L54.1362 333.788H53.8033H27.8672C23.9619 333.788 20.7835 330.611 20.7835 326.705V279.07C20.7835 275.165 23.9607 271.987 27.8672 271.987H104.88M104.88 271.41H27.8672C23.6393 271.41 20.2075 274.84 20.2075 279.069V326.703C20.2075 330.932 23.6382 334.363 27.8672 334.363H53.8033L62.4179 349.303C63.2624 350.762 64.7392 351.491 66.2161 351.491C67.693 351.491 69.1698 350.762 70.0142 349.303L78.6277 334.363H104.88C109.107 334.363 112.539 330.932 112.539 326.703V279.069C112.538 274.84 109.107 271.41 104.88 271.41Z" fill="#2C3E50"/>
<path d="M48.0121 296.694C50.5591 296.694 52.6304 298.766 52.6304 301.312C52.6304 303.859 50.558 305.93 48.0121 305.93C45.465 305.93 43.3937 303.858 43.3937 301.312C43.3925 298.766 45.465 296.694 48.0121 296.694ZM48.0121 295.542C44.8245 295.542 42.2417 298.126 42.2417 301.312C42.2417 304.5 44.8256 307.082 48.0121 307.082C51.1997 307.082 53.7824 304.499 53.7824 301.312C53.7824 298.126 51.1985 295.542 48.0121 295.542Z" fill="#2C3E50"/>
<path d="M73.1927 296.694C75.7398 296.694 77.8111 298.766 77.8111 301.312C77.8111 303.859 75.7387 305.93 73.1927 305.93C70.6468 305.93 68.5744 303.858 68.5744 301.312C68.5744 298.766 70.6468 296.694 73.1927 296.694ZM73.1927 295.542C70.0052 295.542 67.4224 298.126 67.4224 301.312C67.4224 304.5 70.0063 307.082 73.1927 307.082C76.3803 307.082 78.9631 304.499 78.9631 301.312C78.9642 298.126 76.3803 295.542 73.1927 295.542Z" fill="#2C3E50"/>
<path d="M98.3744 296.694C100.921 296.694 102.993 298.766 102.993 301.312C102.993 303.859 100.92 305.93 98.3744 305.93C95.8284 305.93 93.756 303.858 93.756 301.312C93.7549 298.766 95.8273 296.694 98.3744 296.694ZM98.3744 295.542C95.1868 295.542 92.604 298.126 92.604 301.312C92.604 304.5 95.1879 307.082 98.3744 307.082C101.562 307.082 104.145 304.499 104.145 301.312C104.145 298.126 101.561 295.542 98.3744 295.542Z" fill="#2C3E50"/>
<path d="M110.687 201.713C110.687 208.796 104.947 214.535 97.8648 214.535C97.7911 214.535 97.707 214.535 97.6344 214.525V214.535H31.649C31.0926 214.535 30.5477 214.504 30.012 214.43C23.6956 213.623 18.8169 208.24 18.8169 201.713C18.8169 194.631 24.5562 188.892 31.649 188.892C33.233 188.892 34.7445 189.175 36.1395 189.699C35.7928 188.241 35.6038 186.719 35.6038 185.156C35.6038 174.338 44.3752 165.567 55.1925 165.567C63.7334 165.567 70.9933 171.033 73.6694 178.65C75.7683 177.171 78.3177 176.3 81.0767 176.3C88.1592 176.3 93.8985 182.04 93.8985 189.122C93.8985 189.258 93.8985 189.385 93.8881 189.521C95.1369 189.112 96.4801 188.891 97.8648 188.891C104.947 188.893 110.687 194.632 110.687 201.713Z" fill="#1ABC9C"/>
<path d="M31.6492 214.535H30.0122V214.43C30.5479 214.504 31.0939 214.535 31.6492 214.535Z" fill="#1ABC9C"/>
<path d="M48.8992 169.292C56.9574 169.292 64.1643 174.395 66.8323 181.99L67.0846 182.709L67.7079 182.27C69.7907 180.801 72.2375 180.025 74.7835 180.025C81.5353 180.025 87.0292 185.517 87.0292 192.271C87.0292 192.391 87.0304 192.503 87.02 192.625L86.9532 193.486L87.7734 193.217C88.9899 192.819 90.2675 192.617 91.5704 192.617C98.3223 192.617 103.816 198.11 103.816 204.863C103.816 211.615 98.3234 217.109 91.5704 217.109C91.552 217.109 91.5335 217.109 91.5139 217.109C91.4828 217.109 91.4506 217.108 91.4218 217.104L90.764 217.02V217.109H25.3546C24.7947 217.109 24.2844 217.077 23.7913 217.009C17.6961 216.229 13.0996 211.008 13.0996 204.863C13.0996 198.111 18.5981 192.617 25.3557 192.617C26.8395 192.617 28.283 192.876 29.6435 193.388L30.6572 193.769L30.4073 192.716C30.0628 191.265 29.8877 189.781 29.8877 188.306C29.8854 177.821 38.4148 169.292 48.8992 169.292ZM48.8992 168.716C38.0819 168.716 29.3106 177.487 29.3106 188.304C29.3106 189.867 29.4995 191.389 29.8451 192.848C28.45 192.324 26.9386 192.04 25.3546 192.04C18.2617 192.04 12.5225 197.779 12.5225 204.862C12.5225 211.388 17.4012 216.77 23.7176 217.579C24.2521 217.653 24.7982 217.684 25.3546 217.684H91.3389V217.673C91.4126 217.684 91.4967 217.684 91.5692 217.684C98.6517 217.684 104.391 211.944 104.391 204.862C104.391 197.779 98.6517 192.04 91.5692 192.04C90.1845 192.04 88.8413 192.26 87.5925 192.669C87.6029 192.533 87.6029 192.406 87.6029 192.271C87.6029 185.188 81.8636 179.449 74.7811 179.449C72.0221 179.449 69.4727 180.32 67.3738 181.799C64.7 174.183 57.4389 168.716 48.8992 168.716Z" fill="#2C3E50"/>
<path d="M23.7178 217.578V217.682H25.3548C24.7983 217.682 24.2523 217.651 23.7178 217.578Z" fill="#2C3E50"/>
<path d="M52.6974 186.847L60.3651 195.68H55.4991H54.9231V196.256V210.346H50.8219V196.256V195.68H50.2459H45.0297L52.6974 186.847ZM52.6974 185.969L43.7671 196.256H50.2459V210.922H55.4991V196.256H61.6277L52.6974 185.969Z" fill="#2C3E50"/>
<path d="M74.6232 186.545V200.635V201.211H75.1992H80.0653L72.3976 210.045L64.7299 201.211H69.9461H70.5221V200.635V186.545H74.6232ZM75.1992 185.969H69.9461V200.635H63.4673L72.3976 210.922L81.3279 200.635H75.1992V185.969Z" fill="#2C3E50"/>
<path d="M460.275 19.8323H364.366V86.9017H460.275V19.8323Z" fill="white"/>
<path d="M454.388 24.8343V90.7517H359.632V24.8343H454.388ZM454.964 24.2583H359.056V91.3277H454.964V24.2583Z" fill="#2C3E50"/>
<path d="M417.437 39.6409C423.473 42.1845 427.712 48.1565 427.712 55.118C427.712 64.3893 420.196 71.905 410.925 71.905C401.653 71.905 394.138 64.3893 394.138 55.118C394.138 45.8467 401.653 38.3311 410.925 38.3311" fill="#E0E0E2"/>
<path d="M417.437 39.6409C423.473 42.1845 427.712 48.1565 427.712 55.118C427.712 64.3893 420.196 71.905 410.925 71.905C401.653 71.905 394.138 64.3893 394.138 55.118C394.138 45.8467 401.653 38.3311 410.925 38.3311" stroke="#2C3E50" stroke-width="0.5" stroke-miterlimit="10"/>
<path d="M422.465 53.4188L404.94 63.5368V43.3008L422.465 53.4188Z" fill="#EB2F06"/>
<path d="M470.012 80.7051H369.992V83.3604H470.012V80.7051Z" fill="#0C2461"/>
<path d="M424.87 80.7051H369.992V83.3604H424.87V80.7051Z" fill="#EB2F06"/>
<path d="M470.012 16.0906H369.992V28.4826H470.012V16.0906Z" fill="#2C3E50"/>
<path d="M377.073 22.286C377.073 23.264 376.28 24.0566 375.302 24.0566C374.324 24.0566 373.532 23.264 373.532 22.286C373.532 21.308 374.324 20.5154 375.302 20.5154C376.28 20.5154 377.073 21.3091 377.073 22.286Z" fill="#E74C3C"/>
<path d="M383.268 22.286C383.268 23.264 382.476 24.0566 381.498 24.0566C380.52 24.0566 379.727 23.264 379.727 22.286C379.727 21.308 380.52 20.5154 381.498 20.5154C382.476 20.5154 383.268 21.3091 383.268 22.286Z" fill="#FED330"/>
<path d="M389.465 22.286C389.465 23.264 388.672 24.0566 387.694 24.0566C386.716 24.0566 385.924 23.264 385.924 22.286C385.924 21.308 386.716 20.5154 387.694 20.5154C388.672 20.5154 389.465 21.3091 389.465 22.286Z" fill="#1ABC9C"/>
<path d="M471.795 268.664H375.886V335.734H471.795V268.664Z" fill="white"/>
<path d="M465.908 273.666V339.584H371.152V273.666H465.908ZM466.484 273.09H370.576V340.16H466.484V273.09Z" fill="#2C3E50"/>
<path d="M428.957 288.473C434.993 291.017 439.232 296.988 439.232 303.95C439.232 313.221 431.716 320.737 422.445 320.737C413.173 320.737 405.658 313.221 405.658 303.95C405.658 294.679 413.173 287.163 422.445 287.163" fill="#E0E0E2"/>
<path d="M428.957 288.473C434.993 291.017 439.232 296.988 439.232 303.95C439.232 313.221 431.716 320.737 422.445 320.737C413.173 320.737 405.658 313.221 405.658 303.95C405.658 294.679 413.173 287.163 422.445 287.163" stroke="#2C3E50" stroke-width="0.5" stroke-miterlimit="10"/>
<path d="M433.985 302.251L416.46 312.369V292.133L433.985 302.251Z" fill="#EB2F06"/>
<path d="M481.532 329.537H381.512V332.192H481.532V329.537Z" fill="#0C2461"/>
<path d="M436.39 329.537H381.512V332.192H436.39V329.537Z" fill="#EB2F06"/>
<path d="M481.532 264.923H381.512V277.315H481.532V264.923Z" fill="#2C3E50"/>
<path d="M388.593 271.118C388.593 272.096 387.8 272.889 386.822 272.889C385.844 272.889 385.052 272.096 385.052 271.118C385.052 270.14 385.844 269.347 386.822 269.347C387.8 269.347 388.593 270.14 388.593 271.118Z" fill="#E74C3C"/>
<path d="M394.788 271.118C394.788 272.096 393.996 272.889 393.018 272.889C392.04 272.889 391.247 272.096 391.247 271.118C391.247 270.14 392.04 269.347 393.018 269.347C393.996 269.347 394.788 270.14 394.788 271.118Z" fill="#FED330"/>
<path d="M400.985 271.118C400.985 272.096 400.193 272.889 399.214 272.889C398.236 272.889 397.444 272.096 397.444 271.118C397.444 270.14 398.236 269.347 399.214 269.347C400.193 269.347 400.985 270.14 400.985 271.118Z" fill="#1ABC9C"/>
<path d="M309.894 50.2417C309.894 60.9058 305.62 70.5722 298.65 77.6028C291.6 84.7522 281.794 89.1862 270.95 89.1862C260.905 89.1862 251.738 85.3719 244.828 79.1408C236.958 71.9914 232.006 61.7052 232.006 50.2428C232.006 28.7339 249.44 11.2983 270.95 11.2983C292.458 11.2983 309.894 28.7327 309.894 50.2417Z" fill="white"/>
<path d="M270.881 4.96223C296.445 4.96223 317.245 25.7604 317.245 51.3256C317.245 63.6244 312.492 75.1916 303.858 83.8996C295.091 92.7919 283.379 97.689 270.882 97.689C259.381 97.689 248.335 93.4416 239.784 85.7313C230.083 76.9173 224.519 64.3766 224.519 51.3268C224.518 25.7604 245.316 4.96223 270.881 4.96223ZM270.881 4.38623C244.957 4.38623 223.942 25.401 223.942 51.3256C223.942 65.1427 229.912 77.5394 239.396 86.1563C247.725 93.6662 258.774 98.2639 270.881 98.2639C283.952 98.2639 295.771 92.9197 304.269 84.3028C312.669 75.8298 317.821 64.1785 317.821 51.3245C317.82 25.3999 296.806 4.38623 270.881 4.38623Z" fill="#2C3E50"/>
<path d="M272.417 53.3589C280.69 53.3589 287.396 46.6529 287.396 38.3806C287.396 30.1084 280.69 23.4023 272.417 23.4023C264.145 23.4023 257.439 30.1084 257.439 38.3806C257.439 46.6529 264.145 53.3589 272.417 53.3589Z" fill="#0A3D62"/>
<path d="M298.649 77.6028C291.599 84.7521 281.793 89.1862 270.949 89.1862C260.904 89.1862 251.738 85.3719 244.827 79.1407C247.323 68.775 255.212 60.6477 265.217 58.0914C267.374 57.5327 269.63 57.2332 271.947 57.2332C273.784 57.2332 275.602 57.4129 277.34 57.7723C287.466 59.8275 295.634 67.5366 298.649 77.6028Z" fill="#0A3D62"/>
</svg>
