<svg xmlns="http://www.w3.org/2000/svg" width="50" height="45" fill="none"><path fill="#12C296" d="M13.101 18.639c0 1.52 1.241 2.758 2.767 2.758a2.765 2.765 0 0 0 2.767-2.758 2.766 2.766 0 0 0-2.767-2.758A2.766 2.766 0 0 0 13.1 18.64Zm3.935 0a1.167 1.167 0 0 1-2.336 0 1.167 1.167 0 0 1 2.336 0Z"/><path fill="#12C296" d="M40.393 10.084a.803.803 0 0 0-1.085.318.796.796 0 0 0 .319 1.081c5.494 2.989 8.773 7.812 8.773 12.901 0 4.69-1.88 8.153-6.096 11.228a.805.805 0 0 0-.309.47l-1.576 7.077h-2.95l-.94-3.606a.8.8 0 0 0-1.052-.547c-2.617.969-4.6 1.28-8.163 1.28-3.383 0-5.8-.237-8.883-1.486a.797.797 0 0 0-1.079.555l-.907 3.804h-2.924l-1.553-7.634a.797.797 0 0 0-.337-.502C4.974 30.553 1.6 26.695 1.6 23.558v-3.01c0-1.291.917-2.342 2.044-2.342h3.551l.07-.001c.031 0 .06-.002.09 0a.803.803 0 0 0 .763-.383c1.15-1.915 2.817-3.64 4.953-5.127a.797.797 0 0 0 .342-.653V5.415c2.852.297 4.862 2.15 5.634 3.99a.8.8 0 0 0 1.046.428c.407-.17.6-.637.43-1.043-1.047-2.493-3.898-5.01-7.91-5.01-.441 0-.799.357-.799.797v7.054c-2.018 1.46-3.64 3.133-4.825 4.98H3.643C1.634 16.612 0 18.379 0 20.549v3.01c0 5.398 7.571 10.654 10.465 12.603l1.618 7.953a.798.798 0 0 0 .784.639h4.21a.8.8 0 0 0 .778-.613l.841-3.53c2.923 1.057 5.35 1.27 8.618 1.27 3.013 0 5.153-.177 7.887-1.087l.876 3.363c.091.352.41.597.773.597h4.21a.8.8 0 0 0 .782-.624l1.65-7.41C47.93 33.395 50 29.468 50 24.383c0-5.682-3.592-11.028-9.607-14.3Z"/><path fill="#12C296" d="M24.569 12.345a.785.785 0 0 0 .627-.259c1.085-1.186 2.825-1.895 4.654-1.895 1.814 0 3.497.707 4.62 1.937a.8.8 0 0 0 .592.261h.032a.8.8 0 0 0 .602-.31 7.262 7.262 0 0 0 1.528-4.482c0-4.053-3.309-7.35-7.374-7.35-4.066 0-7.374 3.297-7.374 7.35a7.27 7.27 0 0 0 1.492 4.434.801.801 0 0 0 .6.314Zm5.28-10.504c3.185 0 5.776 2.582 5.776 5.756 0 .98-.241 1.921-.705 2.762-1.371-1.129-3.168-1.761-5.07-1.761-1.928 0-3.733.616-5.092 1.716a5.695 5.695 0 0 1-.682-2.717c0-3.174 2.59-5.756 5.774-5.756Z"/></svg>