<svg xmlns="http://www.w3.org/2000/svg" width="25" height="25" fill="none"><g clip-path="url(#a)"><path fill="url(#b)" d="M12.5 0a12.498 12.498 0 0 0-8.838 21.339A12.499 12.499 0 1 0 21.338 3.66 12.498 12.498 0 0 0 12.5 0Z"/><path fill="#fff" d="M5.658 12.368c3.645-1.588 6.074-2.634 7.29-3.14 3.472-1.444 4.193-1.695 4.663-1.703.104-.002.334.024.485.145.125.103.16.242.177.34.016.096.038.318.02.491-.188 1.977-1.002 6.773-1.416 8.987-.174.937-.52 1.25-.854 1.281-.726.067-1.277-.48-1.98-.94-1.1-.721-1.72-1.17-2.79-1.874-1.233-.813-.433-1.26.27-1.99.184-.192 3.383-3.101 3.444-3.365.008-.033.015-.156-.059-.22-.072-.066-.18-.044-.258-.026-.111.025-1.867 1.187-5.273 3.485-.498.342-.95.51-1.356.5-.445-.009-1.304-.252-1.943-.459-.781-.255-1.404-.39-1.35-.821.028-.225.338-.456.93-.691Z"/></g><defs><linearGradient id="b" x1="1250" x2="1250" y1="0" y2="2500" gradientUnits="userSpaceOnUse"><stop stop-color="#2AABEE"/><stop offset="1" stop-color="#229ED9"/></linearGradient><clipPath id="a"><path fill="#fff" d="M0 0h25v25H0z"/></clipPath></defs></svg>