<svg xmlns="http://www.w3.org/2000/svg" width="37" height="25" fill="none"><g clip-path="url(#a)"><path fill="red" d="M35.492 3.9A4.47 4.47 0 0 0 32.346.752C29.586 0 18.482 0 18.482 0S7.377.023 4.617.775a4.47 4.47 0 0 0-3.146 3.147c-.835 4.903-1.159 12.373.023 17.08a4.47 4.47 0 0 0 3.146 3.146c2.76.753 13.865.753 13.865.753s11.104 0 13.863-.753a4.47 4.47 0 0 0 3.147-3.147c.88-4.91 1.152-12.375-.023-17.102Z"/><path fill="#fff" d="m14.947 17.786 9.213-5.336-9.213-5.335v10.671Z"/></g><defs><clipPath id="a"><path fill="#fff" d="M.722 0h35.556v25H.722z"/></clipPath></defs></svg>