<svg xmlns="http://www.w3.org/2000/svg" width="26" height="25" fill="none"><mask id="a" width="26" height="25" x="0" y="0" maskUnits="userSpaceOnUse" style="mask-type:luminance"><path fill="#fff" d="M19.641 0H6.803a6.081 6.081 0 0 0-6.08 6.081V18.92A6.081 6.081 0 0 0 6.802 25h12.838a6.081 6.081 0 0 0 6.081-6.081V6.08A6.081 6.081 0 0 0 19.642 0Z"/></mask><g mask="url(#a)"><path fill="#100943" d="M25.784 0H.722v25.062h25.062V0Z"/><path fill="#ED143B" d="M25.721 12.5c6.904 0 12.5-5.596 12.5-12.5s-5.596-12.5-12.5-12.5c-6.903 0-12.5 5.596-12.5 12.5s5.597 12.5 12.5 12.5Z"/><path fill="#fff" d="M16.165 11.93H8.779V9.006h7.386c.431 0 .731.075.882.206.15.131.244.375.244.73v1.05c0 .375-.094.619-.244.75s-.45.187-.882.187Zm.506-5.679H5.646V18.75H8.78v-4.066h5.772l2.74 4.066h3.507l-3.02-4.085c1.113-.165 1.613-.507 2.026-1.069.412-.562.619-1.461.619-2.661v-.937c0-.712-.075-1.274-.207-1.705a2.84 2.84 0 0 0-.675-1.143 3.052 3.052 0 0 0-1.163-.693c-.45-.132-1.013-.207-1.707-.207v.001Z"/></g></svg>