<svg xmlns="http://www.w3.org/2000/svg" width="50" height="57" fill="none"><path fill="#12C296" d="M28.75 8.914V6.346h2.394a.898.898 0 0 0 .876-.876V1.267a.898.898 0 0 0-.876-.876H20.928a.898.898 0 0 0-.876.876V5.47c0 .467.41.876.876.876h2.394v2.568c-5.663.643-10.683 3.27-14.478 7.122l-.992-.992 1.634-1.635a.847.847 0 0 0 0-1.226L6.1 8.799a.846.846 0 0 0-1.226 0L.263 13.293a.846.846 0 0 0 0 1.226l3.386 3.385c.175.176.408.234.642.234.233 0 .467-.058.642-.234l1.693-1.692 1.109 1.109a23.723 23.723 0 0 0-5.604 15.353c0 13.193 10.741 23.934 23.934 23.934C39.26 56.608 50 45.868 50 32.674c-.058-12.26-9.34-22.417-21.25-23.76Zm-24.46 7.18-2.16-2.218 3.27-3.269 2.16 2.16-1.284 1.285-.643.642-1.342 1.4Zm19.907-11.5h-2.393V2.144h8.465v2.452h-2.394A.898.898 0 0 0 27 5.47v3.328h-1.868V5.47c-.058-.525-.467-.875-.934-.875Zm1.81 50.263c-12.2 0-22.183-9.924-22.183-22.183 0-12.26 9.924-22.183 22.183-22.183.467 0 .934 0 1.401.058.234 0 .467.058.7.058C39.376 11.658 48.19 21.174 48.19 32.674c0 12.26-9.924 22.183-22.183 22.183Z"/><path fill="#12C296" d="m38.617 18.313-.176-.175c-3.327-2.86-7.647-4.554-12.376-4.554-10.566 0-19.089 8.582-19.089 19.09S15.5 51.822 26.007 51.822s19.09-8.582 19.09-19.09c.058-5.78-2.51-10.916-6.48-14.419ZM26.007 50.07c-9.574 0-17.338-7.764-17.338-17.338 0-9.574 7.764-17.338 17.338-17.338 4.028 0 7.706 1.401 10.625 3.678L27.175 29.93c-.35-.117-.76-.233-1.11-.233a2.99 2.99 0 0 0-2.977 2.977 2.99 2.99 0 0 0 2.977 2.977c1.635 0 2.92-1.343 2.92-2.977 0-.584-.176-1.168-.468-1.635l9.516-10.916c3.327 3.152 5.37 7.589 5.37 12.55 0 9.575-7.822 17.397-17.396 17.397Zm1.226-17.396c0 .7-.526 1.226-1.226 1.226s-1.226-.526-1.226-1.226c0-.642.526-1.226 1.226-1.226s1.226.584 1.226 1.226Z"/></svg>