<svg xmlns="http://www.w3.org/2000/svg" width="25" height="25" fill="none"><path fill="url(#a)" d="M.104 12.387c0 2.183.573 4.315 1.662 6.194L0 25l6.599-1.723c1.825.99 3.87 1.508 5.948 1.508h.006c6.86 0 12.444-5.557 12.447-12.388a12.283 12.283 0 0 0-3.643-8.764A12.398 12.398 0 0 0 12.552 0C5.692 0 .107 5.557.104 12.387"/><path fill="#fff" d="M9.332 7.019c-.242-.534-.496-.545-.725-.554-.188-.008-.403-.008-.618-.008-.215 0-.564.08-.859.402-.295.32-1.128 1.096-1.128 2.674 0 1.578 1.155 3.104 1.316 3.318.161.213 2.229 3.555 5.504 4.841 2.721 1.068 3.275.856 3.866.802.59-.053 1.906-.775 2.174-1.524.269-.75.269-1.391.188-1.525-.08-.134-.295-.214-.617-.375-.322-.16-1.907-.936-2.202-1.043-.295-.107-.51-.16-.725.161-.215.32-.832 1.043-1.02 1.257-.188.214-.376.24-.698.08-.322-.16-1.36-.499-2.59-1.591-.959-.85-1.605-1.9-1.793-2.221-.188-.321-.02-.495.141-.655.145-.143.323-.374.484-.562.16-.187.214-.32.322-.534.107-.215.053-.402-.027-.562-.08-.16-.707-1.747-.993-2.381Z"/><defs><linearGradient id="a" x1="1250" x2="1250" y1="2500" y2="0" gradientUnits="userSpaceOnUse"><stop stop-color="#1FAF38"/><stop offset="1" stop-color="#60D669"/></linearGradient></defs></svg>